<?xml version="1.0" standalone="no"?>
<!DOCTYPE svg PUBLIC "-//W3C//DTD SVG 20010904//EN"
 "http://www.w3.org/TR/2001/REC-SVG-20010904/DTD/svg10.dtd">
<svg version="1.0" xmlns="http://www.w3.org/2000/svg"
 width="96.000000pt" height="96.000000pt" viewBox="0 0 96.000000 96.000000"
 preserveAspectRatio="xMidYMid meet">
<metadata>
Created by potrace 1.11, written by Peter Selinger 2001-2013
</metadata>
<g transform="translate(0.000000,96.000000) scale(0.100000,-0.100000)"
fill="#000000" stroke="none">
<path d="M412 848 c-34 -51 -62 -97 -62 -102 0 -7 25 -4 73 10 15 5 17 -2 17
-59 l0 -64 -62 -6 c-35 -4 -87 -16 -116 -27 -72 -28 -78 -26 -86 20 -3 22 -10
40 -14 40 -11 -1 -132 -189 -124 -194 16 -10 222 -49 228 -43 4 3 -6 21 -20
38 -32 37 -31 39 62 70 77 26 137 20 182 -18 41 -34 60 -73 60 -123 0 -58 -21
-101 -66 -135 -69 -52 -109 -113 -115 -175 -4 -34 -3 -35 33 -38 35 -3 37 -2
44 33 5 28 31 63 111 148 108 117 119 125 167 126 26 1 28 -1 23 -26 -3 -16
-9 -36 -12 -45 -4 -11 -3 -18 4 -18 17 0 191 119 191 130 0 11 -174 130 -190
130 -6 0 -9 -8 -6 -17 20 -69 20 -70 -21 -76 -21 -2 -48 -8 -60 -12 -18 -6
-23 -3 -23 11 -1 34 -36 99 -74 134 -36 34 -36 35 -36 118 0 83 0 84 23 78 63
-18 80 -19 72 -5 -25 41 -130 189 -135 189 -3 0 -34 -42 -68 -92z"/>
<path d="M350 453 c-33 -23 -40 -33 -40 -66 0 -38 40 -77 80 -77 39 0 80 39
80 75 0 31 -49 85 -77 85 -10 0 -30 -8 -43 -17z"/>
</g>
</svg>
